<?xml version="1.0" standalone="no"?>
<!DOCTYPE svg PUBLIC "-//W3C//DTD SVG 20010904//EN"
 "http://www.w3.org/TR/2001/REC-SVG-20010904/DTD/svg10.dtd">
<svg version="1.0" xmlns="http://www.w3.org/2000/svg"
 width="116.000000pt" height="149.000000pt" viewBox="0 0 116.000000 149.000000"
 preserveAspectRatio="xMidYMid meet">

<g transform="translate(0.000000,149.000000) scale(0.100000,-0.100000)"
fill="#000000" stroke="none">
<path d="M528 1410 c-27 -17 -48 -35 -48 -40 0 -6 -9 -10 -20 -10 -26 0 -80
-27 -80 -40 0 -6 -7 -10 -16 -10 -9 0 -34 -10 -55 -22 -35 -20 -39 -26 -39
-62 0 -31 -3 -37 -12 -28 -22 22 -32 12 -10 -11 12 -13 22 -32 22 -42 0 -10
12 -31 27 -47 51 -53 13 -40 -44 15 -81 79 -81 61 0 -21 64 -64 85 -101 52
-88 -18 6 -20 -5 -3 -22 31 -31 -10 -19 -93 27 -98 55 -99 55 -99 43 0 -4 40
-30 90 -57 49 -27 90 -53 90 -57 0 -4 -4 -18 -10 -32 l-9 -25 -106 28 c-58 16
-105 25 -105 20 0 -8 17 -14 143 -45 62 -15 75 -23 62 -36 -3 -2 -49 1 -102 8
-120 16 -113 16 -113 5 0 -4 47 -14 105 -21 72 -9 105 -17 105 -26 0 -7 -16
-14 -38 -17 l-37 -4 36 -1 c33 -2 37 -5 41 -33 5 -35 -2 -40 -77 -58 -102 -24
-125 -32 -125 -41 0 -4 47 4 105 20 65 17 107 25 111 19 8 -13 13 -10 -98 -54
-54 -21 -98 -42 -98 -47 0 -11 -4 -12 105 32 113 46 105 44 105 27 0 -7 -16
-21 -36 -32 -20 -11 -31 -21 -26 -23 6 -2 24 4 41 12 35 19 41 19 41 6 0 -6
-38 -38 -85 -73 -47 -34 -81 -63 -75 -65 5 -2 41 19 79 47 38 28 71 51 74 51
17 0 -12 -44 -59 -91 -30 -29 -54 -58 -54 -63 0 -6 25 14 55 44 54 53 55 54
55 26 0 -17 -14 -44 -36 -72 -20 -24 -32 -44 -26 -44 6 0 19 11 30 25 26 32
32 32 32 -5 0 -22 -10 -38 -45 -67 l-46 -38 3 -64 3 -64 183 -61 183 -61 182
61 182 61 3 65 3 65 -46 37 c-35 29 -45 44 -45 67 0 36 5 36 35 2 13 -16 26
-25 29 -22 3 3 -10 24 -29 46 -22 26 -35 52 -35 69 0 28 1 27 55 -26 30 -30
55 -49 55 -43 0 7 -25 35 -55 64 -30 28 -55 60 -55 71 0 17 1 18 25 2 14 -9
25 -12 25 -6 0 5 -11 17 -25 26 -14 10 -25 26 -25 39 0 49 11 49 115 7 110
-45 105 -43 105 -31 0 4 -21 16 -47 26 -180 68 -201 98 -38 55 58 -15 105 -24
105 -19 0 8 -18 14 -122 40 -73 18 -78 20 -78 34 0 10 9 12 37 8 26 -4 34 -3
29 5 -4 7 -20 12 -37 12 -19 0 -29 5 -29 15 0 12 22 15 113 18 l112 3 -112 2
c-93 2 -113 5 -113 17 0 8 7 15 15 15 8 0 15 5 15 11 0 6 -7 9 -15 5 -9 -3
-15 0 -15 8 0 12 28 22 158 56 23 6 42 15 42 19 0 5 -47 -4 -105 -19 -80 -22
-105 -25 -105 -15 0 7 41 29 95 51 52 20 95 41 95 46 0 11 4 12 -103 -31 -52
-22 -98 -37 -101 -33 -11 10 -6 19 19 30 14 6 25 16 25 22 0 6 -12 4 -30 -5
-34 -18 -40 -18 -40 -5 0 6 38 38 85 72 47 34 85 66 85 71 0 11 -10 5 -97 -60
-40 -29 -75 -53 -78 -53 -20 0 5 36 60 89 36 35 65 68 65 74 0 6 -27 -15 -60
-48 -33 -32 -63 -55 -67 -51 -5 4 5 19 21 33 16 13 30 36 32 50 1 13 11 34 21
45 18 20 17 20 -3 14 -18 -6 -20 -3 -16 23 3 25 -1 33 -29 51 -19 11 -46 23
-61 27 -16 3 -28 9 -28 14 0 12 -55 39 -80 39 -11 0 -20 6 -20 13 0 9 -88 68
-101 67 -2 0 -25 -14 -51 -30z m42 -15 c0 -12 -47 -45 -65 -45 -16 0 -1 28 23
42 34 22 42 22 42 3z m60 0 c25 -13 42 -45 25 -45 -18 0 -65 33 -65 45 0 19 4
19 40 0z m-60 -82 l0 -48 -67 -29 c-37 -15 -73 -30 -80 -33 -9 -4 -13 6 -13
33 0 38 3 40 73 80 39 23 75 42 80 43 4 1 7 -20 7 -46z m73 22 c34 -17 37 -22
37 -62 0 -24 -2 -43 -5 -43 -3 0 -24 9 -45 20 -38 19 -40 23 -40 66 0 25 3 44
8 42 4 -2 24 -12 45 -23z m-168 -5 c-3 -5 -10 -10 -16 -10 -5 0 -9 5 -9 10 0
6 7 10 16 10 8 0 12 -4 9 -10z m235 0 c0 -5 -4 -10 -9 -10 -6 0 -13 5 -16 10
-3 6 1 10 9 10 9 0 16 -4 16 -10z m-280 -15 c0 -8 -9 -19 -20 -25 -17 -9 -20
-8 -20 9 0 17 11 28 33 30 4 1 7 -6 7 -14z m324 9 c9 -3 16 -15 16 -25 0 -17
-3 -18 -20 -7 -11 7 -20 18 -20 25 0 15 2 15 24 7z m36 -72 c78 -43 85 -50 88
-81 2 -18 -1 -32 -6 -30 -5 2 -48 22 -95 43 l-87 39 0 39 c0 21 3 38 8 38 4 0
45 -22 92 -48z m-412 26 c-6 -18 -28 -21 -28 -4 0 9 7 16 16 16 9 0 14 -5 12
-12z m432 -3 c0 -9 -6 -12 -15 -9 -8 4 -15 10 -15 15 0 5 7 9 15 9 8 0 15 -7
15 -15z m-470 -10 c0 -8 -13 -21 -30 -30 -26 -13 -30 -14 -30 -1 0 14 36 46
52 46 5 0 8 -7 8 -15z m515 3 c14 -6 25 -20 25 -30 0 -19 -1 -19 -30 -1 -16 9
-30 23 -30 30 0 16 3 16 35 1z m-465 -43 c0 -32 -4 -37 -50 -60 -27 -14 -52
-25 -55 -25 -3 0 -5 13 -5 30 0 25 8 34 53 60 28 16 53 30 55 30 1 0 2 -16 2
-35z m180 -14 c0 -39 0 -39 -62 -60 -77 -26 -77 -26 -87 2 -8 20 -3 25 67 59
43 20 78 37 80 37 1 1 2 -17 2 -38z m153 -21 c31 -15 32 -19 14 -44 -13 -18
-16 -18 -80 3 l-67 23 0 39 0 39 53 -24 c28 -13 64 -29 80 -36z m-315 -45 c13
-27 12 -27 -41 -45 -30 -9 -41 -9 -52 0 -23 19 -18 28 28 49 54 25 52 25 65
-4z m411 2 c52 -22 52 -23 32 -41 -19 -17 -22 -17 -65 -1 -42 16 -44 19 -34
41 6 13 12 24 13 24 1 0 26 -10 54 -23z m-249 -36 c0 -38 -11 -51 -46 -51 -22
0 -19 77 4 83 38 10 42 7 42 -32z m83 23 c45 -15 47 -17 47 -55 0 -26 -4 -37
-12 -34 -7 2 -32 9 -55 15 -42 10 -43 12 -43 50 0 46 0 46 63 24z m-166 -81
c-3 -2 -37 -13 -76 -23 -75 -19 -87 -15 -77 23 4 17 23 28 78 47 l73 25 3 -34
c2 -18 1 -35 -1 -38z m288 38 c44 -17 50 -23 53 -50 3 -30 2 -31 -25 -25 -80
20 -78 19 -81 57 -2 20 -2 37 0 37 2 0 26 -9 53 -19z m-205 -86 c0 -49 5 -46
-98 -64 -59 -10 -66 -4 -60 45 3 25 9 30 68 45 93 24 90 25 90 -26z m123 24
l57 -12 0 -44 c0 -37 -3 -44 -17 -39 -10 2 -38 7 -63 11 -79 11 -80 12 -80 62
0 42 2 45 23 40 12 -3 48 -11 80 -18z m135 -72 c2 -27 -1 -37 -12 -37 -35 0
-46 12 -46 50 0 37 1 38 28 31 22 -6 28 -14 30 -44z m-258 -67 l0 -50 -35 0
c-35 0 -35 0 -35 44 0 45 6 52 53 55 14 1 17 -8 17 -49z m68 44 c18 -5 22 -13
22 -50 0 -44 0 -44 -35 -44 l-35 0 0 50 c0 52 4 55 48 44z m30 -286 c3 -47 3
-48 -27 -48 -30 0 -31 2 -31 43 0 50 6 59 35 55 16 -2 21 -12 23 -50z m135 42
l37 0 0 -45 0 -45 -80 0 -80 0 0 43 c0 54 6 60 50 53 19 -3 52 -6 73 -6z
m-403 -45 l0 -45 -40 0 -40 0 0 45 0 45 40 0 40 0 0 -45z m70 0 c0 -41 -2 -45
-25 -45 -23 0 -25 4 -25 45 0 41 2 45 25 45 23 0 25 -4 25 -45z m-22 -117 c-2
-29 -6 -52 -10 -50 -5 1 -33 2 -63 2 l-55 0 0 50 0 50 66 0 65 0 -3 -52z m122
-4 l0 -55 -52 3 -53 3 -3 53 -3 52 55 0 56 0 0 -56z m168 4 l-3 -53 -72 -3
-73 -3 0 56 0 55 76 0 75 0 -3 -52z m102 2 l0 -50 -40 0 -40 0 0 50 0 50 40 0
40 0 0 -50z m-460 -122 l0 -50 -32 7 c-18 4 -34 9 -36 10 -2 2 -1 23 3 47 6
42 8 44 36 40 28 -4 29 -7 29 -54z m470 7 l0 -44 -47 -6 c-27 -4 -56 -9 -65
-12 -16 -4 -18 3 -18 51 l0 55 58 3 c31 2 60 2 65 0 4 -2 7 -23 7 -47z m-332
39 l52 -7 0 -57 0 -57 -62 9 c-113 16 -108 12 -108 68 0 50 0 50 33 50 17 0
56 -3 85 -6z m182 -49 l0 -54 -37 -6 c-21 -3 -46 -8 -55 -10 -16 -3 -18 5 -18
55 l0 59 38 4 c20 2 45 4 55 5 14 2 17 -7 17 -53z m-308 -63 c15 -6 13 -11
-11 -41 l-27 -33 -57 12 c-31 7 -57 16 -57 19 0 3 15 16 33 29 31 22 84 28
119 14z m502 -18 c15 -14 27 -26 25 -28 -6 -5 -101 -27 -103 -24 0 2 -12 16
-26 31 -21 24 -22 30 -10 37 29 18 84 10 114 -16z m-324 -56 l0 -49 -35 7
c-20 3 -65 14 -100 23 l-65 16 29 36 29 35 71 -9 71 -10 0 -49z m204 36 c16
-19 27 -36 25 -37 -5 -4 -192 -47 -201 -47 -5 0 -8 22 -8 49 l0 49 68 9 c37 6
72 11 77 11 6 0 23 -15 39 -34z m-484 -38 l55 -12 3 -58 c2 -45 0 -57 -10 -54
-7 3 -37 13 -65 22 l-53 18 0 49 c0 27 3 49 8 49 4 -1 32 -7 62 -14z m650 -35
l0 -49 -47 -16 c-67 -23 -69 -22 -67 36 l2 53 44 11 c68 19 68 19 68 -35z
m-407 -22 l37 -10 0 -64 c0 -46 -4 -65 -12 -64 -7 0 -53 15 -103 32 l-90 32
-3 44 c-5 69 -3 71 70 54 35 -8 80 -19 101 -24z m275 -16 l-3 -56 -100 -34
c-54 -18 -103 -33 -107 -33 -4 0 -8 29 -8 65 0 59 2 65 23 70 138 34 174 43
185 44 10 1 12 -14 10 -56z"/>
<path d="M140 1112 c0 -5 19 -22 43 -39 58 -41 67 -46 67 -35 0 5 -19 22 -42
38 -64 44 -68 46 -68 36z"/>
<path d="M1007 1039 c-22 -11 -36 -23 -33 -26 7 -7 76 28 76 39 0 10 2 11 -43
-13z"/>
<path d="M260 1020 c0 -5 5 -10 10 -10 6 0 10 5 10 10 0 6 -4 10 -10 10 -5 0
-10 -4 -10 -10z"/>
<path d="M940 1000 c0 -5 5 -10 11 -10 5 0 7 5 4 10 -3 6 -8 10 -11 10 -2 0
-4 -4 -4 -10z"/>
<path d="M80 991 c0 -7 129 -61 148 -61 17 0 -20 21 -77 44 -73 30 -71 29 -71
17z"/>
<path d="M1033 863 c-24 -2 -43 -9 -43 -14 0 -12 110 -1 125 12 9 9 1 9 -82 2z"/>
<path d="M63 793 c15 -2 37 -2 50 0 12 2 0 4 -28 4 -27 0 -38 -2 -22 -4z"/>
<path d="M123 747 c-40 -6 -73 -14 -73 -18 0 -9 93 -2 140 11 45 12 5 16 -67
7z"/>
<path d="M990 739 c0 -5 5 -7 10 -4 6 3 10 8 10 11 0 2 -4 4 -10 4 -5 0 -10
-5 -10 -11z"/>
<path d="M1030 741 c0 -5 14 -11 31 -15 45 -9 65 -8 54 3 -14 12 -85 22 -85
12z"/>
<path d="M910 613 c0 -5 32 -26 70 -47 39 -20 70 -33 70 -27 0 6 -28 25 -62
43 -81 42 -78 41 -78 31z"/>
<path d="M138 562 c-40 -24 -34 -35 7 -15 19 9 35 20 35 25 0 11 -11 9 -42
-10z"/>
<path d="M920 540 c0 -5 5 -10 10 -10 6 0 10 5 10 10 0 6 -4 10 -10 10 -5 0
-10 -4 -10 -10z"/>
<path d="M950 524 c0 -11 45 -43 60 -44 9 0 3 10 -15 25 -30 24 -45 31 -45 19z"/>
</g>
</svg>
